<svg width="54" height="46" viewBox="0 0 54 46" fill="none" xmlns="http://www.w3.org/2000/svg">
<path d="M11.9369 0.125C11.9329 0.125 11.9279 0.126 11.9239 0.126C11.5519 0.13 11.1939 0.303 10.9609 0.594L0.960913 13.094C0.588913 13.56 0.604913 14.217 0.967913 14.663L0.971913 14.668L0.972913 14.67L25.9669 45.413C25.9699 45.417 25.9739 45.42 25.9769 45.424C26.2219 45.717 26.5819 45.875 26.9369 45.875C27.3099 45.875 27.6719 45.703 27.9069 45.414L52.9009 14.671L52.9019 14.669L52.9059 14.664C53.2079 14.292 53.1879 13.863 53.1859 13.875C53.1859 13.589 53.0819 13.307 52.9119 13.094L42.9119 0.594C42.6699 0.292 42.2999 0.125 41.9359 0.125H11.9369ZM13.6929 2.625H24.2389L16.7559 11.459L13.6929 2.625ZM29.6339 2.625H40.1799L37.1159 11.459L29.6339 2.625ZM26.9369 3.309L34.8289 12.625H19.0459L26.9369 3.309ZM11.4979 3.924L14.5159 12.625H4.53791L11.4979 3.924ZM42.3759 3.924L49.3359 12.625H39.3579L42.3759 3.924ZM4.56391 15.125H15.3819L23.4299 38.331L4.56391 15.125ZM18.0279 15.125H35.8439L26.9359 40.81L18.0279 15.125ZM38.4909 15.125H49.3099L30.4429 38.331L38.4909 15.125Z" fill="#46BCCC"/>
</svg>
